<?xml version="1.0" encoding="utf-8"?>
<!-- Svg Vector Icons : http://www.onlinewebfonts.com/icon -->
<!DOCTYPE svg PUBLIC "-//W3C//DTD SVG 1.1//EN" "http://www.w3.org/Graphics/SVG/1.1/DTD/svg11.dtd">
<svg version="1.1" xmlns="http://www.w3.org/2000/svg" xmlns:xlink="http://www.w3.org/1999/xlink" x="0px" y="0px" viewBox="0 0 1000 1000" enable-background="new 0 0 1000 1000" xml:space="preserve">
<metadata> Svg Vector Icons : http://www.onlinewebfonts.com/icon </metadata>
<g><g transform="translate(0.000000,511.000000) scale(0.100000,-0.100000)"><path d="M3628,2462v-196H2042.8c-1487.1,0-1594.9-4.9-1685.6-46.5c-117.6-53.9-169-107.8-220.5-230.3c-31.8-78.4-36.7-323.4-36.7-1884.1c0-1690.5,4.9-1800.8,46.5-1893.8C242.1-1997,362.2-2046,773.7-2046H1080v-196v-196h588h588v196v196h2744h2744v-196v-196h588h588v196v196h313.6c416.5,2.4,536.6,53.9,629.7,276.8c31.8,78.4,36.7,323.4,36.7,1879.2s-4.9,1800.8-36.7,1879.2c-51.4,122.5-102.9,176.4-220.5,230.3c-90.7,41.6-198.4,46.5-1683.2,46.5H6372v196v196H5000H3628V2462z M9495.8,110v-1751.7H5000H504.2L496.9,85.5c-2.5,950.6,0,1742,7.3,1759.1c7.3,24.5,921.2,29.4,4500.7,24.5l4490.8-7.3V110z"/><path d="M1469.5,1445.3c-34.3-17.2-73.5-61.3-88.2-93.1c-26.9-58.8-22.1-63.7,107.8-112.7c120-46.5,183.8-51.5,607.6-51.5H2572l49,134.8c29.4,75.9,51.5,142.1,51.5,147c0,7.3-257.3,12.3-568.4,12.3C1663.1,1479.6,1518.5,1472.2,1469.5,1445.3z"/><path d="M5279.3,1452.6c-66.2-31.8-125-134.8-93.1-164.1c12.2-12.3,71.1-39.2,132.3-61.3c90.7-34.3,191.1-39.2,585.6-34.3l472.8,7.3l46.5,122.5c24.5,68.6,46.6,129.8,46.6,142.1C6470,1491.8,5338.1,1482,5279.3,1452.6z"/><path d="M6558.2,1462.4c-4.9-9.8-34.3-78.4-61.3-151.9c-44.1-117.6-51.4-188.7-51.4-539V364.8L6555.8,257c90.7-90.7,112.7-100.5,147-73.5c56.3,46.5,56.3,1114.8-2.4,1195.6C6656.2,1442.8,6575.4,1489.3,6558.2,1462.4z"/><path d="M7190.3,1457.5c-51.5-19.6-132.3-112.7-132.3-151.9c0-7.3,61.3-39.2,134.8-66.1c120.1-46.5,191.1-51.5,607.6-51.5h472.8l53.9,147l51.5,147l-568.4-2.5C7496.6,1479.6,7217.2,1469.8,7190.3,1457.5z"/><path d="M8407.9,1342.3c-44.1-117.6-51.4-186.2-51.4-556.1V364.8L8466.7,257c90.7-90.7,112.7-100.5,147-73.5c31.8,24.5,36.7,112.7,36.7,568.4c0,580.6-12.2,644.3-129.8,698.3C8461.8,1477.1,8456.9,1472.2,8407.9,1342.3z"/><path d="M2699.5,1320.3c-44.1-120-51.5-186.2-51.5-546.3V364.8L2758.3,257c90.7-90.7,112.7-100.5,147-73.5c31.8,27,36.8,115.2,36.8,588c0,526.7-2.5,561-51.5,622.3C2809.7,1496.7,2760.7,1477.1,2699.5,1320.3z"/><path d="M1349.5,712.7c0-421.4,4.9-504.7,36.7-529.2c34.3-27,56.3-17.2,147,73.5l110.2,107.8v370v370l-147,53.9l-147,51.5V712.7z"/><path d="M5147,712.7c0-610,7.3-627.2,198.4-441l122.5,120l-7.3,352.8l-7.3,352.8l-151.9,56.4l-154.3,58.8V712.7z"/><path d="M7058,712.7c0-421.4,4.9-504.7,36.7-529.2c34.3-27,56.3-17.2,147,73.5L7352,364.8v370v367.5l-147,53.9l-147,53.9V712.7z"/><path d="M3897.5,722.5v-147h147h147v147v147h-147h-147V722.5z"/><path d="M2750.9-44.3L2648-149.7v-406.7c0-357.7,7.3-423.8,51.5-543.9c61.3-156.8,110.2-176.4,191.1-73.5c49,61.3,51.5,95.6,51.5,619.9C2942,119.8,2934.7,141.8,2750.9-44.3z"/><path d="M5176.4,31.6c-22.1-22-29.4-171.5-29.4-526.8v-497.3l154.3,58.8l151.9,56.3l7.3,350.3l7.3,352.8L5350.4-56.6C5222.9,73.3,5218.1,73.3,5176.4,31.6z"/><path d="M6548.4-44.3l-102.9-105.3v-399.4c0-347.9,7.4-421.4,51.4-543.9c61.3-164.2,110.3-183.8,191.1-80.9c49,61.3,51.4,95.6,51.4,619.9C6739.5,119.8,6732.1,141.8,6548.4-44.3z"/><path d="M7087.4,31.6c-22.1-22-29.4-171.5-29.4-524.3v-494.9l142.1,53.9l139.6,53.9l7.3,365.1l7.3,365.1L7249.1-44.3C7136.4,70.8,7129.1,73.3,7087.4,31.6z"/><path d="M8459.4-44.3l-102.9-105.3v-419c0-367.5,7.3-436.1,51.4-553.7c49-129.8,53.9-134.7,112.7-107.8c117.6,53.9,129.8,117.6,129.8,698.3C8650.5,119.8,8640.7,141.8,8459.4-44.3z"/><path d="M3990.6-960.7l-93.1-9.8v-147V-1262h147h147v159.2C4191.5-926.3,4208.7-938.6,3990.6-960.7z"/><path d="M5490-963.1c-34.3-4.9-124.9-29.4-200.9-56.3c-134.8-49-137.2-53.9-110.3-112.7c53.9-117.6,115.2-129.9,727.7-129.9c308.7,0,563.5,7.4,563.5,19.6c0,24.5-85.8,245-102.9,262.1C6352.4-965.6,5597.8-950.8,5490-963.1z"/><path d="M7388.7-970.4c-144.6-17.2-311.2-76-323.4-112.7c-4.9-14.7,17.1-58.8,51.5-95.5l58.8-71.1l602.7-7.3l602.7-7.3l-53.9,149.4c-49,134.7-58.8,147-127.4,149.4C7881.2-955.8,7491.7-958.2,7388.7-970.4z"/></g></g>
</svg>